<svg width="640" height="360" viewBox="0 0 640 360" xmlns="http://www.w3.org/2000/svg" role="img" aria-labelledby="title">
  <title id="title">Fiat Pulse y Cronos listos para entrega</title>
  <defs>
    <linearGradient id="fiatBg" x1="0%" y1="0%" x2="100%" y2="100%">
      <stop offset="0%" stop-color="#641414" />
      <stop offset="100%" stop-color="#2a0505" />
    </linearGradient>
    <linearGradient id="fiatCar" x1="0%" y1="0%" x2="100%" y2="0%">
      <stop offset="0%" stop-color="#f7a4a4" />
      <stop offset="100%" stop-color="#c43737" />
    </linearGradient>
  </defs>
  <rect width="640" height="360" rx="28" fill="url(#fiatBg)" />
  <g opacity="0.45" fill="#5a1010">
    <rect x="60" y="70" width="90" height="176" rx="18" />
    <rect x="170" y="62" width="110" height="198" rx="22" />
    <rect x="310" y="80" width="112" height="186" rx="20" />
    <rect x="446" y="72" width="118" height="204" rx="24" />
  </g>
  <g transform="translate(78 182)">
    <path d="M16 70c-5-20 14-44 36-54 54-24 160-20 222-16 36 2 66 16 88 46 12 16 22 32 24 44H16z" fill="#1a0404" opacity="0.65" />
  </g>
  <g transform="translate(106 144)">
    <path d="M36 92c10-38 38-70 92-84 78-18 166-6 226 32 24 14 46 40 46 66H36z" fill="url(#fiatCar)" />
    <path d="M44 94h330c8 0 14 6 14 14v8c0 6-4 10-10 10H38c-6 0-10-4-10-10v-6c0-10 6-16 16-16z" fill="#2a0505" opacity="0.8" />
    <g transform="translate(42 126)">
      <circle cx="54" cy="0" r="36" fill="#220505" />
      <circle cx="54" cy="0" r="20" fill="#5f1a1a" />
      <circle cx="54" cy="0" r="12" fill="#f7a4a4" />
    </g>
    <g transform="translate(254 126)">
      <circle cx="54" cy="0" r="36" fill="#220505" />
      <circle cx="54" cy="0" r="20" fill="#5f1a1a" />
      <circle cx="54" cy="0" r="12" fill="#f7a4a4" />
    </g>
    <path d="M86 44c6-12 30-22 66-26 68-6 148-2 204 20 12 6 28 18 32 32-12 2-48 4-70-8-30-16-80-20-116-14-26 6-68 8-116-4z" fill="rgba(26,4,4,0.55)" />
  </g>
</svg>
