<svg width="640" height="360" viewBox="0 0 640 360" xmlns="http://www.w3.org/2000/svg" role="img" aria-labelledby="title">
  <title id="title">Toyota Corolla y SW4 certificados</title>
  <defs>
    <linearGradient id="toyotaBg" x1="0%" y1="0%" x2="100%" y2="100%">
      <stop offset="0%" stop-color="#5c0a0a" />
      <stop offset="100%" stop-color="#1a0202" />
    </linearGradient>
    <linearGradient id="toyotaCar" x1="0%" y1="0%" x2="100%" y2="0%">
      <stop offset="0%" stop-color="#ffdfdf" />
      <stop offset="100%" stop-color="#ff7b7b" />
    </linearGradient>
  </defs>
  <rect width="640" height="360" rx="28" fill="url(#toyotaBg)" />
  <g opacity="0.45" fill="#460909">
    <rect x="58" y="72" width="96" height="182" rx="18" />
    <rect x="174" y="64" width="118" height="202" rx="22" />
    <rect x="314" y="82" width="114" height="188" rx="20" />
    <rect x="450" y="72" width="122" height="206" rx="24" />
  </g>
  <g transform="translate(76 186)">
    <path d="M18 72c-5-22 16-48 38-58 56-24 168-22 232-18 36 2 68 18 92 48 12 18 22 32 24 46H18z" fill="#140303" opacity="0.6" />
  </g>
  <g transform="translate(108 146)">
    <path d="M38 94c10-40 40-74 98-88 82-18 176-6 238 32 26 14 48 42 46 68H38z" fill="url(#toyotaCar)" />
    <path d="M46 96h346c8 0 14 6 14 14v8c0 6-4 10-10 10H40c-6 0-10-4-10-10v-6c0-10 6-16 16-16z" fill="#2a0404" opacity="0.82" />
    <g transform="translate(44 128)">
      <circle cx="56" cy="0" r="36" fill="#120202" />
      <circle cx="56" cy="0" r="20" fill="#501010" />
      <circle cx="56" cy="0" r="12" fill="#ffb7b7" />
    </g>
    <g transform="translate(262 128)">
      <circle cx="56" cy="0" r="36" fill="#120202" />
      <circle cx="56" cy="0" r="20" fill="#501010" />
      <circle cx="56" cy="0" r="12" fill="#ffb7b7" />
    </g>
    <path d="M92 48c6-12 30-22 68-26 72-6 158-2 216 20 12 6 30 18 34 32-12 2-48 4-72-8-32-16-84-22-120-14-28 6-72 8-126-4z" fill="rgba(20,3,3,0.55)" />
  </g>
</svg>
