<svg width="800" height="600" viewBox="0 0 800 600" fill="none" xmlns="http://www.w3.org/2000/svg">
  <defs>
    <linearGradient id="bg" x1="0" y1="0" x2="1" y2="1">
      <stop offset="0%" stop-color="#101622" />
      <stop offset="50%" stop-color="#1a2537" />
      <stop offset="100%" stop-color="#0a0f17" />
    </linearGradient>
    <linearGradient id="glow" x1="0" y1="0" x2="1" y2="1">
      <stop offset="0%" stop-color="#f1c40f" stop-opacity="0.8" />
      <stop offset="100%" stop-color="#f39c12" stop-opacity="0.2" />
    </linearGradient>
    <radialGradient id="light" cx="0.5" cy="0.2" r="0.7">
      <stop offset="0%" stop-color="#f1c40f" stop-opacity="0.7" />
      <stop offset="100%" stop-color="#f39c12" stop-opacity="0" />
    </radialGradient>
    <linearGradient id="body" x1="0" y1="0" x2="1" y2="0">
      <stop offset="0%" stop-color="#f1c40f" />
      <stop offset="100%" stop-color="#f39c12" />
    </linearGradient>
    <filter id="shadow" x="80" y="220" width="640" height="260" filterUnits="userSpaceOnUse" color-interpolation-filters="sRGB">
      <feGaussianBlur stdDeviation="24" result="blur" />
      <feFlood flood-color="#050a0e" flood-opacity="0.65" />
      <feComposite in2="blur" operator="in" />
    </filter>
  </defs>
  <rect width="800" height="600" rx="40" fill="url(#bg)" />
  <rect x="40" y="60" width="720" height="480" rx="36" fill="url(#light)" />
  <g filter="url(#shadow)">
    <path d="M140 360C150 310 210 250 340 240H480C600 250 660 300 680 360C710 380 720 410 720 440C710 460 690 470 660 470H160C130 470 110 460 100 430C110 390 120 370 140 360Z" fill="#0b1522" opacity="0.7" />
  </g>
  <path d="M170 350C190 300 260 250 380 250H460C570 260 640 310 660 360C690 380 700 410 700 430C690 450 670 460 640 460H200C170 460 150 450 140 420C150 380 160 360 170 350Z" fill="url(#body)" />
  <path d="M260 310C280 290 320 280 380 280H450C520 280 560 300 590 320C600 330 610 350 600 360H260C240 350 240 330 260 310Z" fill="#141e2b" opacity="0.85" />
  <path d="M250 350H580C600 350 610 360 615 370L630 400C640 420 630 440 610 440H220C200 440 190 420 200 400L215 370C220 360 230 350 250 350Z" fill="#0c141f" opacity="0.85" />
  <g>
    <circle cx="250" cy="430" r="48" fill="#070c12" />
    <circle cx="250" cy="430" r="30" fill="#1f2c3c" />
    <circle cx="250" cy="430" r="12" fill="#f1c40f" />
  </g>
  <g>
    <circle cx="560" cy="430" r="48" fill="#070c12" />
    <circle cx="560" cy="430" r="30" fill="#1f2c3c" />
    <circle cx="560" cy="430" r="12" fill="#f1c40f" />
  </g>
  <rect x="340" y="300" width="160" height="40" rx="12" fill="#0f1926" />
  <rect x="300" y="326" width="240" height="16" rx="8" fill="#f1c40f" opacity="0.4" />
  <rect x="360" y="310" width="120" height="20" rx="10" fill="#162133" />
  <path d="M220 360L250 320H540L580 360H220Z" fill="#162133" opacity="0.7" />
  <path d="M200 360L240 300H520L580 360" stroke="url(#glow)" stroke-width="6" stroke-linecap="round" stroke-linejoin="round" />
  <path d="M620 360C630 360 640 368 645 380L660 414C668 430 656 448 638 448H600C582 448 570 430 578 414L598 380C603 368 610 360 620 360Z" fill="#f1c40f" opacity="0.45" />
  <path d="M210 360C200 360 190 368 185 380L170 414C162 430 174 448 192 448H230C248 448 260 430 252 414L232 380C227 368 220 360 210 360Z" fill="#f1c40f" opacity="0.45" />
  <rect x="300" y="210" width="220" height="40" rx="20" fill="#f1c40f" opacity="0.15" />
  <path d="M350 210C360 200 380 190 410 190H450C480 190 500 200 510 210" stroke="#f1c40f" stroke-width="6" stroke-linecap="round" opacity="0.4" />
  <rect x="130" y="140" width="540" height="40" rx="20" fill="#f1c40f" opacity="0.1" />
  <path d="M160 140C180 120 220 110 280 110H520C580 110 620 120 640 140" stroke="#f1c40f" stroke-width="8" stroke-linecap="round" opacity="0.2" />
</svg>
